<svg xmlns="http://www.w3.org/2000/svg" xmlns:xlink="http://www.w3.org/1999/xlink" width="59.988" height="52.988" viewBox="0 0 59.988 52.988"><defs><clipPath id="a"><rect width="50.717" height="12.038" fill="#fff"/></clipPath></defs><g transform="translate(-280.011 -823)"><path d="M45,47.988H15a1,1,0,0,1,0-2H45a1,1,0,0,1,0,2" transform="translate(280 828)" fill="#4fc3f7"/><path d="M23.566,43.988H9.809a1.022,1.022,0,0,1,0-2H23.566a1.022,1.022,0,0,1,0,2" transform="translate(280 828)" fill="#4fc3f7"/><path d="M55.052,43.988H33.281a1.031,1.031,0,1,1,0-2H55.052a1.031,1.031,0,1,1,0,2" transform="translate(274.667 828)" fill="#4fc3f7"/><path d="M13.173,39.988H4.612c-.337,0-.612-.449-.612-1s.275-1,.612-1h8.562c.337,0,.612.449.612,1s-.275,1-.612,1" transform="translate(277.285 819)" fill="#4fc3f7"/><path d="M51.92,39.988H40.795a1.027,1.027,0,0,1,0-2H51.92a1.027,1.027,0,0,1,0,2" transform="translate(286 819)" fill="#4fc3f7"/><path d="M28.507,39.988H22.434c-.239,0-.434-.449-.434-1s.195-1,.434-1h6.074c.239,0,.434.449.434,1s-.195,1-.434,1" transform="translate(272.819 819)" fill="#4fc3f7"/><path d="M37.716,39.988H23.048a1,1,0,1,1,0-2H37.716a1,1,0,1,1,0,2" transform="translate(283.51 819)" fill="#4fc3f7"/><path d="M48.762,15.988a19,19,0,0,0-37.524,0A11,11,0,0,0,.93,31.386a1,1,0,0,0,.922.6H58.16a.994.994,0,0,0,.918-.6,11,11,0,0,0-10.316-15.4" transform="translate(280 823)" fill="#4fc3f7"/><path d="M58.16,31.988a1.057,1.057,0,0,1-.4-.078,1.008,1.008,0,0,1-.524-1.32A9,9,0,0,0,49,17.988a9.254,9.254,0,0,0-1,.059.978.978,0,0,1-.734-.215,1.006,1.006,0,0,1-.368-.672,17,17,0,0,0-33.8,0,1,1,0,0,1-1.114.879A9,9,0,0,0,2,26.988a8.887,8.887,0,0,0,.762,3.6,1,1,0,1,1-1.832.8,11,11,0,0,1,10.308-15.4,19,19,0,0,1,37.524,0,11,11,0,0,1,10.308,15.4,1,1,0,0,1-.91.6" transform="translate(280 823)" fill="#00253d"/><g transform="translate(284.833 856.988)"><g transform="translate(0 0)" clip-path="url(#a)"><path d="M8.661.18V11.887H7.209V10.562a3.529,3.529,0,0,1-2.981,1.419A4.071,4.071,0,0,1,0,7.706a4.058,4.058,0,0,1,4.228-4.26A3.558,3.558,0,0,1,7.146,4.787V.18Zm-1.5,7.526a2.753,2.753,0,0,0-2.81-2.935A2.756,2.756,0,0,0,1.53,7.706a2.769,2.769,0,0,0,2.823,2.951,2.767,2.767,0,0,0,2.81-2.951" transform="translate(0 0.057)" fill="#fff"/><path d="M13.268,2.663V4.13a2.928,2.928,0,0,0-.347-.014,2.5,2.5,0,0,0-2.635,2.823V11.1H8.772V2.742h1.451v1.4a3.194,3.194,0,0,1,3.045-1.483" transform="translate(2.768 0.84)" fill="#fff"/><path d="M13.4.995A1,1,0,0,1,14.43,0,.987.987,0,1,1,13.4.995m.268,2.588h1.514v8.361H13.672Z" transform="translate(4.229 0)" fill="#fff"/><path d="M23.349,9.839v1.246H16.344v-.977l4.938-6.138H16.439V2.723h6.784v.993L18.284,9.839Z" transform="translate(5.157 0.859)" fill="#fff"/><path d="M29.6,9.839v1.246H22.6v-.977l4.938-6.138H22.691V2.723h6.784v.993L24.536,9.839Z" transform="translate(7.129 0.859)" fill="#fff"/><rect width="1.514" height="11.707" transform="translate(38.755 0.237)" fill="#fff"/><path d="M40.519,7.428H33.735a2.832,2.832,0,0,0,3.03,2.446,3.123,3.123,0,0,0,2.414-1.01l.835.979a4.2,4.2,0,0,1-3.3,1.356,4.186,4.186,0,0,1-4.5-4.275,4.1,4.1,0,0,1,4.2-4.26A4.031,4.031,0,0,1,40.551,6.97c0,.126-.016.316-.032.458M33.735,6.339H39.1a2.7,2.7,0,0,0-5.363,0" transform="translate(10.166 0.84)" fill="#fff"/></g></g></g></svg>